<?xml version="1.0" standalone="no"?>
<!DOCTYPE svg PUBLIC "-//W3C//DTD SVG 20010904//EN"
 "http://www.w3.org/TR/2001/REC-SVG-20010904/DTD/svg10.dtd">
<svg version="1.0" xmlns="http://www.w3.org/2000/svg"
 width="587.000000pt" height="425.000000pt" viewBox="0 0 587.000000 425.000000"
 preserveAspectRatio="xMidYMid meet">

<g transform="translate(0.000000,425.000000) scale(0.100000,-0.100000)"
fill="#000000" stroke="none">
<path d="M2840 4231 c-122 -17 -251 -70 -375 -154 -77 -53 -239 -210 -322
-312 -134 -166 -304 -439 -423 -676 l-50 -99 -688 0 -689 0 -62 -31 c-65 -32
-108 -79 -138 -149 -34 -80 -34 -79 286 -1135 167 -550 326 -1076 354 -1170
l52 -170 77 -72 c49 -45 104 -85 150 -107 141 -70 27 -66 1965 -64 l1748 3 60
24 c71 28 131 68 181 119 43 44 89 109 96 137 6 22 513 1652 639 2053 83 267
91 310 65 395 -19 63 -49 102 -104 134 l-47 28 -705 5 -705 5 -29 55 c-403
773 -794 1158 -1203 1184 -43 2 -103 1 -133 -3z m185 -206 c84 -18 201 -72
275 -128 140 -104 300 -286 442 -500 83 -127 228 -377 228 -396 0 -8 -276 -11
-1035 -11 -569 0 -1035 4 -1035 8 0 18 178 327 255 442 263 393 511 584 775
598 14 1 56 -5 95 -13z m-1455 -1248 c-1 -6 -7 -23 -15 -37 -8 -14 -14 -30
-15 -36 0 -10 155 -84 174 -84 4 0 24 38 45 85 l40 85 1141 0 1141 0 36 -79
35 -79 89 41 c49 22 89 44 89 49 0 5 -7 22 -15 38 l-16 30 629 0 c475 0 631
-3 640 -12 7 -7 12 -23 12 -37 0 -22 -665 -2178 -706 -2288 -21 -58 -101 -128
-167 -148 -44 -13 -264 -15 -1757 -15 -1482 0 -1713 2 -1763 15 -78 20 -125
45 -180 97 l-47 43 -166 550 c-91 303 -244 810 -340 1128 -96 317 -174 588
-174 600 0 33 33 60 83 66 23 3 304 5 625 3 454 -2 582 -5 582 -15z"/>
</g>
</svg>
